<?xml version="1.0" encoding="UTF-8" standalone="no"?>
<!-- Created with Inkscape (http://www.inkscape.org/) -->

<svg
   width="512"
   height="517.13428"
   viewBox="0 0 512 517.13428"
   version="1.1"
   id="svg1"
   xml:space="preserve"
   inkscape:version="1.3 (0e150ed6c4, 2023-07-21)"
   sodipodi:docname="icon.svg"
   xmlns:inkscape="http://www.inkscape.org/namespaces/inkscape"
   xmlns:sodipodi="http://sodipodi.sourceforge.net/DTD/sodipodi-0.dtd"
   xmlns="http://www.w3.org/2000/svg"
   xmlns:svg="http://www.w3.org/2000/svg"><sodipodi:namedview
     id="namedview1"
     pagecolor="#505050"
     bordercolor="#ffffff"
     borderopacity="1"
     inkscape:showpageshadow="0"
     inkscape:pageopacity="0"
     inkscape:pagecheckerboard="1"
     inkscape:deskcolor="#d1d1d1"
     inkscape:document-units="px"
     inkscape:zoom="0.48751698"
     inkscape:cx="34.87058"
     inkscape:cy="6.1536318"
     inkscape:window-width="1920"
     inkscape:window-height="1051"
     inkscape:window-x="-9"
     inkscape:window-y="-9"
     inkscape:window-maximized="1"
     inkscape:current-layer="layer1" /><defs
     id="defs1" /><g
     inkscape:label="Layer 1"
     inkscape:groupmode="layer"
     id="layer1"
     transform="translate(1.342902,-223.36843)"><path
       id="text1"
       style="font-weight:800;font-size:137.276px;line-height:1.25;font-family:Zain;-inkscape-font-specification:'Zain, Ultra-Bold';text-align:center;text-anchor:middle;fill:#035e73;stroke-width:1;fill-opacity:1"
       d="m 221.94037,223.36843 c -46.19506,0 -85.97992,11.5587 -119.343,34.65613 -33.363078,22.24214 -59.03024,53.04617 -76.994875,92.39761 -17.9648224,38.49581 -26.945397,81.69618 -26.945397,129.60212 0,47.90604 8.1149717,91.53435 24.368907,130.88569 17.109239,39.35139 41.929533,71.00233 74.437126,94.95535 32.507589,23.09748 73.139329,34.63737 121.900749,34.63737 29.94122,0 57.31119,-5.99327 82.11975,-17.96983 24.80837,-11.97655 45.34769,-28.21607 61.60153,-48.74718 v 38.48808 c 0,11.12107 5.56529,16.68626 16.68628,16.68626 h 114.1994 c 11.12112,0 16.68626,-5.56519 16.68626,-16.68626 V 255.46683 c 0,-11.12103 -5.56514,-16.68631 -16.68626,-16.68631 h -6.40844 c -26.51947,0 -49.18983,3.84351 -68.00996,11.54267 -17.96482,7.69917 -31.66391,20.53275 -41.07393,38.49749 -14.54295,-16.25386 -34.64464,-31.21849 -60.30859,-44.90588 -24.80846,-13.68739 -56.87822,-20.54637 -96.22955,-20.54637 z m 34.21578,157.69055 A 103.27847,103.27847 0 0 1 359.43122,484.33407 103.27847,103.27847 0 0 1 256.15615,587.61851 103.27847,103.27847 0 0 1 152.87171,484.33407 103.27847,103.27847 0 0 1 256.15615,381.05898 Z M 243.2456,419.7813 v 77.46329 l 67.76636,40.66173 9.69697,-15.87121 -58.08813,-34.46871 v -67.7851 z" /></g></svg>
