<?xml version="1.0" encoding="UTF-8" standalone="no"?>
<!-- Created with Inkscape (http://www.inkscape.org/) -->

<svg
   width="1920"
   height="1080"
   viewBox="0 0 1920 1080"
   version="1.1"
   id="svg1"
   xml:space="preserve"
   inkscape:version="1.3 (0e150ed6c4, 2023-07-21)"
   sodipodi:docname="mockup.svg"
   xmlns:inkscape="http://www.inkscape.org/namespaces/inkscape"
   xmlns:sodipodi="http://sodipodi.sourceforge.net/DTD/sodipodi-0.dtd"
   xmlns="http://www.w3.org/2000/svg"
   xmlns:svg="http://www.w3.org/2000/svg"><sodipodi:namedview
     id="namedview1"
     pagecolor="#505050"
     bordercolor="#ffffff"
     borderopacity="1"
     inkscape:showpageshadow="0"
     inkscape:pageopacity="0"
     inkscape:pagecheckerboard="1"
     inkscape:deskcolor="#d1d1d1"
     inkscape:document-units="px"
     inkscape:zoom="0.5200181"
     inkscape:cx="946.12091"
     inkscape:cy="574.97999"
     inkscape:window-width="1920"
     inkscape:window-height="1051"
     inkscape:window-x="-9"
     inkscape:window-y="-9"
     inkscape:window-maximized="1"
     inkscape:current-layer="layer1" /><defs
     id="defs1"><inkscape:path-effect
       effect="fillet_chamfer"
       id="path-effect16"
       is_visible="true"
       lpeversion="1"
       nodesatellites_param="F,0,0,1,0,48,0,1 @ F,0,0,1,0,48,0,1 @ F,0,0,1,0,48,0,1 @ F,0,0,1,0,48,0,1"
       radius="48"
       unit="px"
       method="auto"
       mode="F"
       chamfer_steps="1"
       flexible="false"
       use_knot_distance="true"
       apply_no_radius="true"
       apply_with_radius="true"
       only_selected="false"
       hide_knots="false" /><inkscape:path-effect
       effect="fillet_chamfer"
       id="path-effect10"
       is_visible="true"
       lpeversion="1"
       nodesatellites_param="F,0,0,1,0,0,0,1 @ F,0,1,1,0,24,0,1 @ F,0,1,1,0,24,0,1 @ F,0,0,1,0,0,0,1"
       radius="24"
       unit="px"
       method="auto"
       mode="F"
       chamfer_steps="1"
       flexible="false"
       use_knot_distance="true"
       apply_no_radius="true"
       apply_with_radius="true"
       only_selected="true"
       hide_knots="false" /><inkscape:path-effect
       effect="fillet_chamfer"
       id="path-effect8"
       is_visible="true"
       lpeversion="1"
       nodesatellites_param="F,0,1,1,0,24,0,1 @ F,0,0,1,0,0,0,1 @ F,0,0,1,0,0,0,1 @ F,0,1,1,0,24,0,1"
       radius="24"
       unit="px"
       method="auto"
       mode="F"
       chamfer_steps="1"
       flexible="false"
       use_knot_distance="true"
       apply_no_radius="true"
       apply_with_radius="true"
       only_selected="true"
       hide_knots="false" /><inkscape:path-effect
       effect="fillet_chamfer"
       id="path-effect7"
       is_visible="true"
       lpeversion="1"
       nodesatellites_param="F,0,0,1,0,0,0,1 @ F,0,0,1,0,0,0,1 @ F,0,0,1,0,0,0,1 @ F,0,0,1,0,0,0,1"
       radius="0"
       unit="px"
       method="auto"
       mode="F"
       chamfer_steps="1"
       flexible="false"
       use_knot_distance="true"
       apply_no_radius="true"
       apply_with_radius="true"
       only_selected="false"
       hide_knots="false" /><inkscape:path-effect
       effect="fillet_chamfer"
       id="path-effect4"
       is_visible="true"
       lpeversion="1"
       nodesatellites_param="F,0,0,1,0,16,0,1 @ F,0,0,1,0,16,0,1 @ F,0,0,1,0,16,0,1 @ F,0,0,1,0,16,0,1"
       radius="16"
       unit="px"
       method="auto"
       mode="F"
       chamfer_steps="1"
       flexible="false"
       use_knot_distance="true"
       apply_no_radius="true"
       apply_with_radius="true"
       only_selected="false"
       hide_knots="false" /><inkscape:path-effect
       effect="fillet_chamfer"
       id="path-effect15"
       is_visible="true"
       lpeversion="1"
       nodesatellites_param="F,0,0,1,0,24,0,1 @ F,0,0,1,0,24,0,1 @ F,0,0,1,0,24,0,1 @ F,0,0,1,0,24,0,1"
       radius="24"
       unit="px"
       method="auto"
       mode="F"
       chamfer_steps="1"
       flexible="false"
       use_knot_distance="true"
       apply_no_radius="true"
       apply_with_radius="true"
       only_selected="false"
       hide_knots="false" /><inkscape:path-effect
       effect="fillet_chamfer"
       id="path-effect13"
       is_visible="true"
       lpeversion="1"
       nodesatellites_param="F,0,0,1,0,24,0,1 @ F,0,0,1,0,24,0,1 @ F,0,0,1,0,24,0,1 @ F,0,0,1,0,24,0,1"
       radius="24"
       unit="px"
       method="auto"
       mode="F"
       chamfer_steps="1"
       flexible="false"
       use_knot_distance="true"
       apply_no_radius="true"
       apply_with_radius="true"
       only_selected="false"
       hide_knots="false" /><inkscape:path-effect
       effect="fillet_chamfer"
       id="path-effect11"
       is_visible="true"
       lpeversion="1"
       nodesatellites_param="F,0,0,1,0,24,0,1 @ F,0,0,1,0,24,0,1 @ F,0,0,1,0,24,0,1 @ F,0,0,1,0,24,0,1"
       radius="24"
       unit="px"
       method="auto"
       mode="F"
       chamfer_steps="1"
       flexible="false"
       use_knot_distance="true"
       apply_no_radius="true"
       apply_with_radius="true"
       only_selected="false"
       hide_knots="false" /><inkscape:path-effect
       effect="fillet_chamfer"
       id="path-effect9"
       is_visible="true"
       lpeversion="1"
       nodesatellites_param="F,0,0,1,0,24,0,1 @ F,0,0,1,0,24,0,1 @ F,0,0,1,0,24,0,1 @ F,0,0,1,0,24,0,1"
       radius="24"
       unit="px"
       method="auto"
       mode="F"
       chamfer_steps="1"
       flexible="false"
       use_knot_distance="true"
       apply_no_radius="true"
       apply_with_radius="true"
       only_selected="false"
       hide_knots="false" /><inkscape:path-effect
       effect="clone_original"
       linkeditem=""
       id="path-effect6"
       is_visible="true"
       lpeversion="1"
       method="d"
       attributes=""
       css_properties=""
       allow_transforms="true" /><inkscape:path-effect
       effect="fillet_chamfer"
       id="path-effect5"
       is_visible="true"
       lpeversion="1"
       nodesatellites_param="F,0,0,1,0,24,0,1 @ F,0,0,1,0,24,0,1 @ F,0,0,1,0,24,0,1 @ F,0,0,1,0,24,0,1"
       radius="24"
       unit="px"
       method="auto"
       mode="F"
       chamfer_steps="1"
       flexible="false"
       use_knot_distance="true"
       apply_no_radius="true"
       apply_with_radius="true"
       only_selected="false"
       hide_knots="false" /><filter
       inkscape:collect="always"
       style="color-interpolation-filters:sRGB"
       id="filter3"
       x="-0.013313547"
       y="-0.93993685"
       width="1.0266271"
       height="2.8798737"><feGaussianBlur
         inkscape:collect="always"
         stdDeviation="10.650838"
         id="feGaussianBlur3" /></filter></defs><g
     inkscape:label="Layer 1"
     inkscape:groupmode="layer"
     id="layer1"><rect
       style="fill:#f2f2f2;fill-rule:evenodd;stroke-width:2.5;stroke-linecap:round;stroke-linejoin:round;stroke-miterlimit:25;paint-order:stroke markers fill;fill-opacity:1"
       id="rect1"
       width="1920"
       height="1080"
       x="0"
       y="0" /><rect
       style="fill:#000000;fill-opacity:1;fill-rule:evenodd;stroke-width:2.5;stroke-linecap:round;stroke-linejoin:round;stroke-miterlimit:25;paint-order:stroke markers fill;filter:url(#filter3);opacity:0.14895833"
       id="rect3"
       width="1920"
       height="27.195456"
       x="0"
       y="108.78187" /><rect
       style="fill:#f2f2f2;fill-opacity:1;fill-rule:evenodd;stroke-width:2.5;stroke-linecap:round;stroke-linejoin:round;stroke-miterlimit:25;paint-order:stroke markers fill"
       id="rect2"
       width="1920"
       height="135.97733"
       x="0"
       y="0" /><path
       id="text1"
       style="font-weight:800;font-size:137.276px;line-height:1.25;font-family:Zain;-inkscape-font-specification:'Zain, Ultra-Bold';text-align:center;text-anchor:middle;fill:#035e73;stroke-width:0.999998;fill-opacity:1"
       d="m 280.24793,21.675284 c -1.4208,0 -2.132,0.71109 -2.132,2.131917 v 67.542841 c 0,7.650611 1.6381,13.388688 4.917,17.214008 3.2788,3.716 7.7613,5.57473 13.4447,5.57473 4.3717,0 7.7606,-0.87305 10.1651,-2.62176 2.5138,-1.74871 4.2621,-3.93598 5.2458,-6.55904 1.0929,-2.62309 1.6397,-5.190549 1.6397,-7.704334 0,-0.546466 -0.1642,-1.093294 -0.4921,-1.639753 -0.2186,-0.546481 -0.6574,-0.821049 -1.3132,-0.821049 -0.4372,0 -0.8197,0.110347 -1.1476,0.328887 -0.3279,0.109263 -0.6002,0.273567 -0.8187,0.492162 -1.093,0.765061 -2.1303,1.365866 -3.1139,1.803021 -0.8743,0.437196 -2.0783,0.655444 -3.6084,0.655444 -4.1532,0 -6.2302,-2.950001 -6.2302,-8.851918 V 37.741686 c 0,-5.901906 -1.3659,-10.053519 -4.0982,-12.457999 -2.6232,-2.40448 -6.5025,-3.608403 -11.6394,-3.608403 z m -24.7551,1.639752 c -2.9509,7e-6 -5.4668,1.03967 -7.5434,3.116258 -1.9673,1.967296 -2.9506,4.480792 -2.9506,7.541034 0,3.06026 0.9833,5.573744 2.9506,7.541058 2.0766,1.967284 4.5925,2.950631 7.5434,2.950631 2.8416,0 5.1908,-0.983347 7.0488,-2.950631 1.9674,-1.967314 2.9508,-4.480798 2.9508,-7.541058 0,-3.060242 -0.9834,-5.573738 -2.9508,-7.541034 -1.858,-2.076588 -4.2072,-3.116258 -7.0488,-3.116258 z m 73.6097,0 c -2.9509,0 -5.4644,1.03967 -7.541,3.116258 -1.9673,1.967296 -2.953,4.480792 -2.953,7.541034 0,3.06026 0.9857,5.573744 2.953,7.541058 2.0766,1.967284 4.5901,2.950631 7.541,2.950631 2.8416,0 5.1909,-0.983347 7.0489,-2.950631 1.9673,-1.967314 2.9506,-4.480798 2.9506,-7.541058 0,-3.060242 -0.9833,-5.573738 -2.9506,-7.541034 -1.858,-2.076588 -4.2073,-3.116251 -7.0489,-3.116258 z M 53.844002,48.233376 c -5.90192,0 -10.98523,1.476173 -15.24774,4.427118 -4.26247,2.841665 -7.54105,6.777341 -9.83622,11.804903 -2.29519,4.918247 -3.44281,10.438077 -3.44281,16.558564 0,6.120501 1.03731,11.694297 3.11393,16.721847 2.18588,5.027552 5.3565,9.071202 9.50969,12.131452 4.15319,2.95094 9.34443,4.42479 15.57422,4.42479 3.82531,0 7.32216,-0.76507 10.49169,-2.29521 3.16953,-1.53013 5.79332,-3.60475 7.86993,-6.22782 v 4.91695 c 0,1.42084 0.71111,2.13193 2.13197,2.13193 h 14.58988 c 1.42086,0 2.13191,-0.71109 2.13191,-2.13193 V 52.333943 c 0,-1.420826 -0.71105,-2.131916 -2.13191,-2.131916 h -0.81871 c -3.38815,0 -6.28416,0.49049 -8.68866,1.474145 -2.29516,0.983647 -4.04592,2.624104 -5.24817,4.919287 -1.85802,-2.076599 -4.42547,-3.98929 -7.70434,-5.738003 -3.16953,-1.748706 -7.26712,-2.62408 -12.29466,-2.62408 z m 141.973598,0 c -5.90191,0 -10.98523,1.476173 -15.24774,4.427118 -4.26245,2.841665 -7.54101,6.777341 -9.83624,11.804903 -2.29516,4.918247 -3.44281,10.438077 -3.44281,16.558564 0,6.120501 1.03966,11.694297 3.11628,16.721847 2.18589,5.027552 5.35414,9.071202 9.50738,12.131452 4.15317,2.95094 9.34441,4.42479 15.5742,4.42479 3.8253,1e-5 7.32216,-0.76507 10.49169,-2.29521 3.16955,-1.53013 5.79332,-3.60475 7.86993,-6.22782 v 4.91695 c 0,1.42084 0.7111,2.13193 2.132,2.13193 h 14.58984 c 1.4209,0 2.132,-0.71109 2.132,-2.13193 V 52.333943 c 0,-1.420826 -0.7111,-2.131916 -2.132,-2.131916 h -0.8187 c -3.3881,0 -6.2842,0.49049 -8.68862,1.474145 -2.29522,0.983647 -4.04363,2.624104 -5.24587,4.919287 -1.85795,-2.076599 -4.42782,-3.98929 -7.7066,-5.738003 -3.16961,-1.748706 -7.2672,-2.62408 -12.29474,-2.62408 z m -96.727368,1.968651 c -1.31152,0 -1.69406,0.71109 -1.14757,2.131916 l 19.838058,58.362027 c 0.43721,1.42084 1.42055,2.13193 2.95062,2.13193 h 18.36162 c 1.42086,0 2.3502,-0.71109 2.78741,-2.13193 l 20.1646,-58.362027 c 0.43722,-1.420826 -0.0558,-2.131916 -1.47644,-2.131916 h -15.08208 c -1.42085,0 -2.29394,0.71109 -2.62175,2.131916 L 130.07545,95.777168 121.3868,66.268429 c -1.20225,-4.371783 -2.56814,-7.706672 -4.09821,-10.001855 -1.53013,-2.295183 -3.4968,-3.879324 -5.9013,-4.753681 -2.29516,-0.874356 -5.35549,-1.310866 -9.18077,-1.310866 z m 149.024798,0 c -1.4208,0 -2.1319,0.71109 -2.1319,2.131916 v 58.362027 c 0,1.42084 0.7111,2.13193 2.1319,2.13193 h 14.4266 c 1.4209,0 2.132,-0.71109 2.132,-2.13193 V 66.268429 c 0,-5.901901 -1.3682,-10.055848 -4.1006,-12.460329 -2.623,-2.404493 -6.5025,-3.606073 -11.6393,-3.606073 z m 73.6098,0 c -1.4209,0 -2.132,0.71109 -2.132,2.131916 v 58.362027 c 0,1.42084 0.7111,2.13193 2.132,2.13193 h 14.4266 c 1.4208,0 2.1319,-0.71109 2.1319,-2.13193 V 66.268429 c 0,-5.901901 -1.3659,-10.055848 -4.0982,-12.460329 -2.6231,-2.404493 -6.5048,-3.606073 -11.6417,-3.606073 z m -121.15358,16.22968 c 1.53013,0 3.33255,0.32856 5.40911,0.984328 2.07663,0.546476 3.88135,1.85836 5.41144,3.934953 1.6395,2.076607 2.45849,5.355174 2.45849,9.836245 0,4.481074 -0.81899,7.867612 -2.45849,10.162809 -1.63936,2.185886 -3.49807,3.662064 -5.5747,4.427126 -2.07663,0.655763 -3.825,0.984309 -5.24585,0.984309 -1.42086,0 -3.27954,-0.328546 -5.57471,-0.984309 -2.18588,-0.765062 -4.15256,-2.24124 -5.90129,-4.427126 -1.63941,-2.295197 -2.4585,-5.681735 -2.4585,-10.162809 0,-4.481071 0.87308,-7.759638 2.62176,-9.836245 1.74874,-2.076593 3.71774,-3.388477 5.90363,-3.934953 2.18589,-0.655768 3.98825,-0.984328 5.40911,-0.984328 z M 58.215102,68.379361 a 13.1949,13.1949 0 0 1 13.19509,13.195077 13.1949,13.1949 0 0 1 -13.19509,13.195075 13.1949,13.1949 0 0 1 -13.19507,-13.195075 13.1949,13.1949 0 0 1 13.19507,-13.195077 z m -1.64908,4.947277 v 9.896893 l 8.65831,5.194527 1.23859,-2.026967 -7.42211,-4.403805 v -8.660648 z" /><path
       style="fill:none;stroke:#cccccc;stroke-width:4;stroke-linecap:butt;stroke-linejoin:miter;stroke-opacity:1;stroke-dasharray:none"
       d="M 0,135.97732 H 1920"
       id="path3" /><text
       xml:space="preserve"
       style="font-size:60.4222px;line-height:1.25;font-family:'Source Sans Pro';-inkscape-font-specification:'Source Sans Pro, Normal';text-align:center;text-anchor:middle;stroke-width:1;fill:#035e73;fill-opacity:1"
       x="1619.7794"
       y="83.184845"
       id="text3"><tspan
         sodipodi:role="line"
         id="tspan3"
         x="1619.7794"
         y="83.184845"
         style="font-style:normal;font-variant:normal;font-weight:normal;font-stretch:normal;font-size:60.4222px;font-family:Quicksand;-inkscape-font-specification:'Quicksand, @wght=400';font-variant-ligatures:normal;font-variant-caps:normal;font-variant-numeric:normal;font-variant-east-asian:normal;font-variation-settings:'wght' 400;stroke-width:1;fill:#035e73;fill-opacity:1">Event • John Smith</tspan></text><path
       style="font-variation-settings:'wght' 500;fill:#ff8080;fill-opacity:1;fill-rule:evenodd;stroke:#ff2a2a;stroke-width:12;stroke-linecap:round;stroke-linejoin:round;stroke-miterlimit:25;stroke-dasharray:none;paint-order:stroke markers fill"
       id="rect5"
       width="105.76555"
       height="105.76555"
       x="476.90646"
       y="482.67551"
       inkscape:path-effect="#path-effect5"
       sodipodi:type="rect"
       d="m 500.90646,482.67551 57.76555,0 a 24,24 45 0 1 24,24 v 57.76555 a 24,24 135 0 1 -24,24 h -57.76555 a 24,24 45 0 1 -24,-24 v -57.76555 a 24,24 135 0 1 24,-24 z"
       transform="translate(87.259867,4.9110411)" /><text
       xml:space="preserve"
       style="font-style:normal;font-variant:normal;font-weight:300;font-stretch:normal;font-size:21.3333px;line-height:1.25;font-family:Quicksand;-inkscape-font-specification:'Quicksand, Light';font-variant-ligatures:normal;font-variant-caps:normal;font-variant-numeric:normal;font-variant-east-asian:normal;text-align:center;text-anchor:middle"
       x="617.04913"
       y="475.33054"
       id="text5"><tspan
         sodipodi:role="line"
         id="tspan5"
         x="617.04913"
         y="475.33054">WED</tspan></text><text
       xml:space="preserve"
       style="font-style:normal;font-variant:normal;font-weight:normal;font-stretch:normal;font-size:21.3333px;line-height:1.25;font-family:Quicksand;-inkscape-font-specification:'Quicksand, @wght=600';font-variant-ligatures:normal;font-variant-caps:normal;font-variant-numeric:normal;font-variant-east-asian:normal;font-variation-settings:'wght' 600;text-align:center;text-anchor:middle"
       x="617.04913"
       y="619.60278"
       id="text6"><tspan
         sodipodi:role="line"
         id="tspan6"
         x="617.04913"
         y="619.60278">31 JUL</tspan></text><path
       d="m 642.49095,522.99821 -5.12471,-5.12471 -20.31714,20.31715 -20.31713,-20.31715 -5.12472,5.12471 20.31714,20.31716 -20.31714,20.31711 5.12472,5.12471 20.31713,-20.31711 20.31714,20.31711 5.12471,-5.12471 -20.31713,-20.31711 z"
       id="path1"
       style="fill:#ff2a2a;stroke:none;stroke-width:0.999999" /><path
       style="font-variation-settings:'wght' 500;fill:#ffdd55;fill-opacity:1;fill-rule:evenodd;stroke:#ffcc00;stroke-width:12;stroke-linecap:round;stroke-linejoin:round;stroke-miterlimit:25;stroke-dasharray:none;paint-order:stroke markers fill"
       id="path9"
       width="105.76555"
       height="105.76555"
       x="476.90646"
       y="482.67551"
       inkscape:path-effect="#path-effect11"
       sodipodi:type="rect"
       d="m 500.90646,482.67551 57.76555,0 a 24,24 45 0 1 24,24 v 57.76555 a 24,24 135 0 1 -24,24 h -57.76555 a 24,24 45 0 1 -24,-24 v -57.76555 a 24,24 135 0 1 24,-24 z"
       transform="translate(258.73532,4.9110411)" /><text
       xml:space="preserve"
       style="font-style:normal;font-variant:normal;font-weight:300;font-stretch:normal;font-size:21.3333px;line-height:1.25;font-family:Quicksand;-inkscape-font-specification:'Quicksand, Light';font-variant-ligatures:normal;font-variant-caps:normal;font-variant-numeric:normal;font-variant-east-asian:normal;text-align:center;text-anchor:middle"
       x="788.52454"
       y="475.33054"
       id="text9"><tspan
         sodipodi:role="line"
         id="tspan9"
         x="788.52454"
         y="475.33054">THU</tspan></text><text
       xml:space="preserve"
       style="font-style:normal;font-variant:normal;font-weight:normal;font-stretch:normal;font-size:21.3333px;line-height:1.25;font-family:Quicksand;-inkscape-font-specification:'Quicksand, @wght=600';font-variant-ligatures:normal;font-variant-caps:normal;font-variant-numeric:normal;font-variant-east-asian:normal;font-variation-settings:'wght' 600;text-align:center;text-anchor:middle"
       x="788.52454"
       y="619.60278"
       id="text10"><tspan
         sodipodi:role="line"
         id="tspan10"
         x="791.48987"
         y="619.60278">1 AUG </tspan></text><path
       style="font-variation-settings:'wght' 500;fill:#7fff2a;fill-opacity:1;fill-rule:evenodd;stroke:#55d400;stroke-width:12;stroke-linecap:round;stroke-linejoin:round;stroke-miterlimit:25;stroke-dasharray:none;paint-order:stroke markers fill"
       id="path11"
       width="105.76555"
       height="105.76555"
       x="476.90646"
       y="482.67551"
       inkscape:path-effect="#path-effect13"
       sodipodi:type="rect"
       d="m 500.90646,482.67551 57.76555,0 a 24,24 45 0 1 24,24 v 57.76555 a 24,24 135 0 1 -24,24 h -57.76555 a 24,24 45 0 1 -24,-24 v -57.76555 a 24,24 135 0 1 24,-24 z"
       transform="translate(430.21076,4.9110411)" /><text
       xml:space="preserve"
       style="font-style:normal;font-variant:normal;font-weight:300;font-stretch:normal;font-size:21.3333px;line-height:1.25;font-family:Quicksand;-inkscape-font-specification:'Quicksand, Light';font-variant-ligatures:normal;font-variant-caps:normal;font-variant-numeric:normal;font-variant-east-asian:normal;text-align:center;text-anchor:middle"
       x="960"
       y="475.33054"
       id="text11"><tspan
         sodipodi:role="line"
         id="tspan11"
         x="960"
         y="475.33054">FRI</tspan></text><text
       xml:space="preserve"
       style="font-style:normal;font-variant:normal;font-weight:normal;font-stretch:normal;font-size:21.3333px;line-height:1.25;font-family:Quicksand;-inkscape-font-specification:'Quicksand, @wght=600';font-variant-ligatures:normal;font-variant-caps:normal;font-variant-numeric:normal;font-variant-east-asian:normal;font-variation-settings:'wght' 600;text-align:center;text-anchor:middle"
       x="960"
       y="619.60278"
       id="text12"><tspan
         sodipodi:role="line"
         id="tspan12"
         x="960"
         y="619.60278">2 AUG</tspan></text><path
       style="font-variation-settings:'wght' 500;fill:#b3b3b3;fill-opacity:1;fill-rule:evenodd;stroke:#999999;stroke-width:12;stroke-linecap:butt;stroke-linejoin:round;stroke-miterlimit:25;stroke-dasharray:12, 12;stroke-dashoffset:0;paint-order:stroke markers fill"
       id="path13"
       width="105.76555"
       height="105.76555"
       x="476.90646"
       y="482.67551"
       inkscape:path-effect="#path-effect15"
       sodipodi:type="rect"
       d="m 500.90646,482.67551 57.76555,0 a 24,24 45 0 1 24,24 v 57.76555 a 24,24 135 0 1 -24,24 h -57.76555 a 24,24 45 0 1 -24,-24 v -57.76555 a 24,24 135 0 1 24,-24 z"
       transform="translate(601.68621,4.9110411)" /><text
       xml:space="preserve"
       style="font-style:normal;font-variant:normal;font-weight:300;font-stretch:normal;font-size:21.3333px;line-height:1.25;font-family:Quicksand;-inkscape-font-specification:'Quicksand, Light';font-variant-ligatures:normal;font-variant-caps:normal;font-variant-numeric:normal;font-variant-east-asian:normal;text-align:center;text-anchor:middle"
       x="1131.4755"
       y="475.33054"
       id="text13"><tspan
         sodipodi:role="line"
         id="tspan13"
         x="1131.4755"
         y="475.33054">SAT</tspan></text><text
       xml:space="preserve"
       style="font-style:normal;font-variant:normal;font-weight:normal;font-stretch:normal;font-size:21.3333px;line-height:1.25;font-family:Quicksand;-inkscape-font-specification:'Quicksand, @wght=600';font-variant-ligatures:normal;font-variant-caps:normal;font-variant-numeric:normal;font-variant-east-asian:normal;font-variation-settings:'wght' 600;text-align:center;text-anchor:middle"
       x="1131.4755"
       y="619.60278"
       id="text14"><tspan
         sodipodi:role="line"
         id="tspan14"
         x="1131.4755"
         y="619.60278">3 AUG</tspan></text><path
       d="m 1156.9173,522.99821 -5.1247,-5.12471 -20.3172,20.31715 -20.3171,-20.31715 -5.1247,5.12471 20.3171,20.31716 -20.3171,20.31711 5.1247,5.12471 20.3171,-20.31711 20.3172,20.31711 5.1247,-5.12471 -20.3171,-20.31711 z"
       id="path14"
       style="fill:#999999;stroke-width:0.999999" /><path
       style="font-variation-settings:'wght' 500;fill:#00aad4;fill-opacity:1;fill-rule:evenodd;stroke:#0088aa;stroke-width:12;stroke-linecap:round;stroke-linejoin:round;stroke-miterlimit:25;stroke-dasharray:none;paint-order:stroke markers fill"
       id="path7"
       width="105.76555"
       height="105.76555"
       x="476.90646"
       y="482.67551"
       inkscape:path-effect="#path-effect9"
       sodipodi:type="rect"
       d="m 500.90646,482.67551 57.76555,0 a 24,24 45 0 1 24,24 v 57.76555 a 24,24 135 0 1 -24,24 h -57.76555 a 24,24 45 0 1 -24,-24 v -57.76555 a 24,24 135 0 1 24,-24 z"
       transform="translate(773.16166,4.9110411)" /><text
       xml:space="preserve"
       style="font-style:normal;font-variant:normal;font-weight:300;font-stretch:normal;font-size:21.3333px;line-height:1.25;font-family:Quicksand;-inkscape-font-specification:'Quicksand, Light';font-variant-ligatures:normal;font-variant-caps:normal;font-variant-numeric:normal;font-variant-east-asian:normal;text-align:center;text-anchor:middle"
       x="1302.9509"
       y="475.33054"
       id="text7"><tspan
         sodipodi:role="line"
         id="tspan7"
         x="1302.9509"
         y="475.33054">SUN</tspan></text><text
       xml:space="preserve"
       style="font-style:normal;font-variant:normal;font-weight:normal;font-stretch:normal;font-size:21.3333px;line-height:1.25;font-family:Quicksand;-inkscape-font-specification:'Quicksand, @wght=600';font-variant-ligatures:normal;font-variant-caps:normal;font-variant-numeric:normal;font-variant-east-asian:normal;font-variation-settings:'wght' 600;text-align:center;text-anchor:middle"
       x="1302.9509"
       y="619.60278"
       id="text8"><tspan
         sodipodi:role="line"
         id="tspan8"
         x="1302.9509"
         y="619.60278">4 AUG</tspan></text><path
       d="m 758.52426,552.31544 c 0,0 0,-18.00019 18.00019,-18.00019 12.00011,0 13.50014,10.50011 22.50024,10.50011 12.00011,0 12.00011,-10.50011 12.00011,-10.50011 h 7.50008 c 0,0 0,18.00019 -18.00018,18.00019 -12.00014,0 -16.50018,-10.50012 -22.50024,-10.50012 -12.00012,0 -12.00012,10.50012 -12.00012,10.50012 h -7.50008"
       id="path1-1"
       style="fill:#ffcc00;stroke-width:1" /><path
       d="m 991.37488,524.32909 -43.02839,43.02839 -19.72134,-19.72134 5.05583,-5.05584 14.66551,14.62965 37.97255,-37.93669 z"
       id="path1-5"
       style="fill:#55d400;stroke-width:1" /><path
       d="m 1308.7306,509.66878 -3.5366,3.53657 5.2393,5.23937 c 0.7205,0.81865 1.0807,1.76829 1.0807,2.84891 0,1.08061 -0.3602,2.09575 -1.0807,2.81616 l -11.6248,11.82132 3.2746,3.53657 11.8868,-11.82132 c 1.7356,-1.93201 2.587,-4.06051 2.587,-6.35273 0,-2.29223 -0.8514,-4.45347 -2.587,-6.38549 l -5.2393,-5.23936 m -13.033,6.6147 -3.5366,3.53658 1.9975,1.83378 c 0.7205,0.7204 1.0807,1.70278 1.0807,2.91439 0,1.2116 -0.3602,2.19398 -1.0807,2.9144 l -1.9975,1.83378 3.5366,3.53657 1.8338,-1.9975 c 1.7356,-1.93202 2.6196,-4.02777 2.6196,-6.28725 0,-2.35771 -0.884,-4.4862 -2.6196,-6.45097 l -1.8338,-1.83378 m 34.2197,5.20662 c -2.2595,0 -4.3552,0.88414 -6.2873,2.61969 l -18.436,18.46877 3.5366,3.27461 18.2723,-18.20681 c 0.8186,-0.81865 1.801,-1.24435 2.9144,-1.24435 1.1133,0 2.0957,0.4257 2.9143,1.24435 l 1.9976,1.99751 3.3728,-3.53657 -1.8338,-1.99751 c -1.932,-1.73555 -4.0932,-2.61969 -6.4509,-2.61969 m -45.8445,9.62734 -16.373,45.84447 45.8444,-16.37302 -29.4715,-29.47145 m 39.2952,10.02029 c -2.2922,0 -4.3878,0.88415 -6.3527,2.61968 l -5.2066,5.20663 3.5366,3.53657 5.2066,-5.20662 c 0.8186,-0.81865 1.7356,-1.24435 2.8161,-1.24435 1.0807,0 2.063,0.4257 2.8818,1.24435 l 5.3048,5.20662 3.4383,-3.37284 -5.2394,-5.37036 c -1.932,-1.73553 -4.0932,-2.61968 -6.3855,-2.61968 z"
       id="path1-59"
       style="fill:#0088aa;stroke-width:1" /><path
       id="rect4"
       style="font-variation-settings:'wght' 500;fill:#cccccc;fill-rule:evenodd;stroke:#b3b3b3;stroke-width:10.06663863;stroke-linejoin:round;stroke-miterlimit:25;stroke-dasharray:none;stroke-dashoffset:0;paint-order:stroke markers fill"
       d="m 724.48096,277.39377 h 447.03814 a 24,24 45 0 1 24,24 v 0.95184 a 24,24 135 0 1 -24,24 H 724.48096 Z"
       inkscape:path-effect="#path-effect10"
       inkscape:original-d="m 724.48096,277.39377 h 471.03814 v 48.95184 H 724.48096 Z"
       transform="matrix(1.1920563,0,0,1.1920563,-179.67332,-57.975982)" /><text
       xml:space="preserve"
       style="font-style:normal;font-variant:normal;font-weight:normal;font-stretch:normal;font-size:28.8792px;line-height:1.25;font-family:Quicksand;-inkscape-font-specification:'Quicksand, @wght=500';font-variant-ligatures:normal;font-variant-caps:normal;font-variant-numeric:normal;font-variant-east-asian:normal;font-variation-settings:'wght' 500;text-align:center;text-anchor:middle;stroke-width:1;fill:#666666"
       x="965.11945"
       y="309.28461"
       id="text2"><tspan
         sodipodi:role="line"
         id="tspan1"
         x="965.11945"
         y="309.28461"
         style="stroke-width:1;fill:#666666">Click on a date to set your availability</tspan></text><path
       id="rect6"
       d="m 699.52911,277.39377 h 24.95184 v 48.95184 h -24.95184 a 24,24 45 0 1 -24,-24 v -0.95184 a 24,24 135 0 1 24,-24 z"
       style="font-variation-settings:'wght' 500;fill:#cccccc;fill-opacity:1;fill-rule:evenodd;stroke:#b3b3b3;stroke-width:10.06663863;stroke-linecap:butt;stroke-linejoin:round;stroke-miterlimit:25;stroke-dasharray:none;stroke-dashoffset:0;paint-order:stroke markers fill"
       inkscape:path-effect="#path-effect8"
       inkscape:original-d="m 675.52911,277.39377 h 48.95184 v 48.95184 h -48.95184 z"
       transform="matrix(1.1920563,0,0,1.1920563,-179.67332,-57.975982)" /><path
       d="m 658.60071,283.98789 a 3.3519201,3.3519201 0 0 0 -3.35193,3.35193 3.3519201,3.3519201 0 0 0 3.35193,3.35192 3.3519201,3.3519201 0 0 0 3.35188,-3.35192 3.3519201,3.3519201 0 0 0 -3.35188,-3.35193 m -0.8045,10.6591 c -2.65919,0.22337 -9.92167,6.01111 -9.92167,6.01111 -0.44693,0.33518 -0.31284,0.31284 0.0448,0.93853 0.35755,0.60335 0.31283,0.64804 0.73744,0.35756 0.44689,-0.29051 1.18432,-0.75977 2.41336,-1.51954 4.73741,-3.03909 0.75976,3.97759 -1.27373,15.7987 -0.80446,5.85471 4.46927,2.83797 5.83236,1.94412 1.34078,-0.87149 4.93853,-3.35192 5.29606,-3.59774 0.4916,-0.33518 0.13406,-0.60333 -0.24582,-1.16199 -0.26818,-0.37987 -0.5363,-0.11169 -0.5363,-0.11169 -1.4525,0.96088 -4.11169,2.97203 -4.46922,1.69831 -0.4246,-1.27376 2.30161,-10.01108 3.79881,-16.02219 0.24582,-1.43017 0.91619,-4.55861 -1.67595,-4.33516 z"
       id="path1-53"
       style="fill:#b3b3b3;stroke-width:1" /><rect
       style="opacity:0.148958;fill:#000000;fill-opacity:1;fill-rule:evenodd;stroke-width:2.5;stroke-linecap:round;stroke-linejoin:round;stroke-miterlimit:25;paint-order:stroke markers fill;filter:url(#filter3)"
       id="rect16"
       width="1920"
       height="27.195456"
       x="0"
       y="906.57501"
       transform="matrix(1,0,0,-1,0,1877.7931)" /><rect
       style="fill:#f2f2f2;fill-opacity:1;fill-rule:evenodd;stroke-width:2.5;stroke-linecap:round;stroke-linejoin:round;stroke-miterlimit:25;paint-order:stroke markers fill"
       id="rect17"
       width="1920"
       height="135.97733"
       x="0"
       y="-1080"
       transform="scale(1,-1)" /><rect
       style="font-variation-settings:'wght' 700;fill:#f2a922;fill-opacity:1;fill-rule:evenodd;stroke:none;stroke-width:12;stroke-linecap:round;stroke-linejoin:round;stroke-miterlimit:25;stroke-dasharray:none;stroke-opacity:1;paint-order:stroke markers fill"
       id="rect18"
       width="403.70663"
       height="133.97729"
       x="1516.2933"
       y="946.02264" /><path
       style="fill:none;stroke:#cccccc;stroke-width:4;stroke-linecap:butt;stroke-linejoin:miter;stroke-dasharray:none;stroke-opacity:1"
       d="M 0,944.02267 H 1920"
       id="path18" /><text
       xml:space="preserve"
       style="font-size:48.0324px;line-height:1.25;font-family:'Source Sans Pro';-inkscape-font-specification:'Source Sans Pro, Normal';text-align:center;text-anchor:middle;stroke-width:1;fill:#f2f2f2"
       x="1718.1947"
       y="1030.5431"
       id="text18"><tspan
         sodipodi:role="line"
         id="tspan18"
         x="1718.1947"
         y="1030.5431"
         style="font-style:normal;font-variant:normal;font-weight:normal;font-stretch:normal;font-size:48.0324px;font-family:Quicksand;-inkscape-font-specification:'Quicksand, @wght=600';font-variant-ligatures:normal;font-variant-caps:normal;font-variant-numeric:normal;font-variant-east-asian:normal;font-variation-settings:'wght' 600;stroke-width:1;fill:#f2f2f2">Submit</tspan></text><text
       xml:space="preserve"
       style="font-size:39.9052px;line-height:1.25;font-family:'Source Sans Pro';-inkscape-font-specification:'Source Sans Pro, Normal';text-align:center;text-anchor:middle;stroke-width:1"
       x="742.11353"
       y="1023.2869"
       id="text20"><tspan
         sodipodi:role="line"
         id="tspan20"
         x="742.11353"
         y="1023.2869"
         style="stroke-width:1">You've marked 1 day as  <tspan
   style="fill:#ff2a2a;stroke-width:1"
   id="tspan15">⏺︎ </tspan>blocked, 1 day as  <tspan
   style="fill:#ffcc00;stroke-width:1"
   id="tspan4">⏺︎ </tspan>tentative, and left 3 days as  <tspan
   style="fill:#44aa00;stroke-width:1"
   id="tspan2">⏺︎ </tspan>free.</tspan></text></g></svg>
