<?xml version="1.0" encoding="UTF-8" standalone="no"?>
<!-- Created with Inkscape (http://www.inkscape.org/) -->

<svg
   width="512"
   height="128"
   viewBox="0 0 512 128"
   version="1.1"
   id="svg1"
   xml:space="preserve"
   inkscape:version="1.3 (0e150ed6c4, 2023-07-21)"
   sodipodi:docname="logo_gh.svg"
   inkscape:export-filename="logo_gh.png"
   inkscape:export-xdpi="192"
   inkscape:export-ydpi="192"
   xmlns:inkscape="http://www.inkscape.org/namespaces/inkscape"
   xmlns:sodipodi="http://sodipodi.sourceforge.net/DTD/sodipodi-0.dtd"
   xmlns="http://www.w3.org/2000/svg"
   xmlns:svg="http://www.w3.org/2000/svg"><sodipodi:namedview
     id="namedview1"
     pagecolor="#505050"
     bordercolor="#ffffff"
     borderopacity="1"
     inkscape:showpageshadow="0"
     inkscape:pageopacity="0"
     inkscape:pagecheckerboard="1"
     inkscape:deskcolor="#d1d1d1"
     inkscape:document-units="px"
     inkscape:zoom="1.3789062"
     inkscape:cx="190.73088"
     inkscape:cy="44.23796"
     inkscape:window-width="1920"
     inkscape:window-height="1051"
     inkscape:window-x="-9"
     inkscape:window-y="-9"
     inkscape:window-maximized="1"
     inkscape:current-layer="layer1" /><defs
     id="defs1" /><g
     inkscape:label="Layer 1"
     inkscape:groupmode="layer"
     id="layer1"
     transform="translate(1.3429019,-180.03445)"><rect
       style="fill:#f2a922;fill-opacity:1;fill-rule:evenodd;stroke-width:2.5;stroke-linecap:round;stroke-linejoin:round;stroke-miterlimit:25;paint-order:stroke markers fill"
       id="rect1"
       width="512"
       height="128"
       x="-1.3429019"
       y="180.03445" /><g
       id="g1"
       transform="matrix(0.50097294,0,0,0.50097294,127.08078,115.98397)"
       style="stroke-width:1.99612"><ellipse
         style="fill:#f2a922;fill-opacity:1;fill-rule:evenodd;stroke-width:4.99029;stroke-linecap:round;stroke-linejoin:round;stroke-miterlimit:25;paint-order:stroke markers fill"
         id="path1"
         cx="52.373177"
         cy="279.77457"
         rx="30.255356"
         ry="25.768333" /><path
         id="text1"
         style="font-weight:800;font-size:137.276px;line-height:1.25;font-family:Zain;-inkscape-font-specification:'Zain, Ultra-Bold';text-align:center;text-anchor:middle;fill:#035e73;fill-opacity:1;stroke-width:1.99612"
         d="m 414.62523,180.03445 c -2.31837,0 -3.47865,1.16028 -3.47865,3.47863 v 110.20907 c 0,12.48344 2.67289,21.84621 8.02295,28.08795 5.35006,6.06338 12.6641,9.09624 21.93753,9.09624 7.1334,0 12.66298,-1.42454 16.58635,-4.27791 4.10172,-2.85335 6.95458,-6.4223 8.5596,-10.70233 1.78335,-4.28006 2.67558,-8.46937 2.67558,-12.57109 0,-0.89166 -0.26804,-1.78391 -0.80304,-2.67557 -0.35668,-0.89168 -1.07275,-1.3397 -2.14276,-1.3397 -0.71334,0 -1.33753,0.18005 -1.87253,0.53664 -0.535,0.17829 -0.97924,0.44638 -1.3359,0.80306 -1.78335,1.24834 -3.47594,2.22867 -5.08095,2.94198 -1.42668,0.71337 -3.39113,1.06948 -5.8878,1.06948 -6.77674,0 -10.16571,-4.81349 -10.16571,-14.4436 v -83.99744 c 0,-9.63009 -2.22869,-16.40424 -6.68707,-20.32761 -4.28005,-3.92337 -10.60998,-5.8878 -18.99173,-5.8878 z m -40.39262,2.67557 c -4.81505,1e-5 -8.9201,1.69642 -12.30845,5.08477 -3.21005,3.21002 -4.81455,7.31127 -4.81455,12.30464 0,4.9934 1.6045,9.09463 4.81455,12.30468 3.38835,3.21 7.4934,4.81452 12.30845,4.81452 4.63671,0 8.46991,-1.60452 11.50159,-4.81452 3.21005,-3.21005 4.81455,-7.31128 4.81455,-12.30468 0,-4.99337 -1.6045,-9.09462 -4.81455,-12.30464 -3.03168,-3.38835 -6.86488,-5.08477 -11.50159,-5.08477 z m 120.10835,0 c -4.81503,0 -8.91628,1.69642 -12.30464,5.08477 -3.21003,3.21002 -4.81836,7.31127 -4.81836,12.30464 0,4.9934 1.60833,9.09463 4.81836,12.30468 3.38836,3.21 7.48961,4.81452 12.30464,4.81452 4.6367,0 8.4699,-1.60452 11.50159,-4.81452 3.21003,-3.21005 4.81455,-7.31128 4.81455,-12.30468 0,-4.99337 -1.60452,-9.09462 -4.81455,-12.30464 -3.03169,-3.38835 -6.86489,-5.08476 -11.50159,-5.08477 z M 45.203938,223.36906 c -9.630089,0 -17.924476,2.40866 -24.879536,7.22369 -6.955061,4.63672 -12.3046872,11.05853 -16.0496988,19.26196 -3.74505064,8.02506 -5.6176052,17.03172 -5.6176052,27.01847 0,9.98677 1.6925773,19.08148 5.0809666,27.28489 3.5666908,8.20342 8.7401594,14.8014 15.5168804,19.79478 6.77672,4.81504 15.247265,7.21989 25.412354,7.21989 6.241719,0 11.947461,-1.24836 17.119196,-3.74506 5.171696,-2.4967 9.452917,-5.88185 12.841287,-10.16189 v 8.02294 c 0,2.31837 1.160304,3.47866 3.478651,3.47866 h 23.806237 c 2.31837,0 3.47865,-1.16029 3.47865,-3.47866 v -95.22881 c 0,-2.31835 -1.16028,-3.47863 -3.47865,-3.47863 h -1.33587 c -5.528401,0 -10.253837,0.80033 -14.177189,2.40535 -3.74505,1.60501 -6.601731,4.28173 -8.563397,8.02676 -3.031709,-3.38837 -7.221032,-6.50929 -12.571088,-9.36265 -5.171715,-2.85335 -11.857784,-4.28169 -20.061188,-4.28169 z m 231.657102,0 c -9.63009,0 -17.92447,2.40866 -24.87954,7.22369 -6.95506,4.63672 -12.30467,11.05853 -16.04971,19.26196 -3.74504,8.02506 -5.61759,17.03172 -5.61759,27.01847 0,9.98677 1.6964,19.08148 5.08476,27.28489 3.5667,8.20342 8.73634,14.8014 15.51307,19.79478 6.77672,4.81504 15.24726,7.21989 25.41237,7.21989 6.24172,2e-5 11.94748,-1.24836 17.1192,-3.74506 5.1717,-2.4967 9.45292,-5.88185 12.84128,-10.16189 v 8.02294 c 0,2.31837 1.16029,3.47866 3.47866,3.47866 h 23.80623 c 2.31837,0 3.47866,-1.16029 3.47866,-3.47866 v -95.22881 c 0,-2.31835 -1.16029,-3.47863 -3.47866,-3.47863 h -1.33587 c -5.52838,0 -10.25381,0.80033 -14.17719,2.40535 -3.74502,1.60501 -6.59791,4.28173 -8.5596,8.02676 -3.03168,-3.38837 -7.22483,-6.50929 -12.57488,-9.36265 -5.17171,-2.85335 -11.85779,-4.28169 -20.06119,-4.28169 z m -157.82918,3.21223 c -2.14,0 -2.76419,1.16028 -1.87252,3.47863 l 32.36964,95.22881 c 0.71335,2.31837 2.31785,3.47866 4.81454,3.47866 H 184.304 c 2.31836,0 3.83479,-1.16029 4.54813,-3.47866 l 32.90248,-95.22881 c 0.71334,-2.31835 -0.0908,-3.47863 -2.40916,-3.47863 h -24.60932 c -2.31837,0 -3.74291,1.16028 -4.27789,3.47863 L 169.59018,300.94586 155.413,252.7967 c -1.96169,-7.1334 -4.19038,-12.57491 -6.68707,-16.31994 -2.49669,-3.74503 -5.70568,-6.32986 -9.62905,-7.75654 -3.74504,-1.42668 -8.73853,-2.13893 -14.98025,-2.13893 z m 243.16252,0 c -2.31836,0 -3.47865,1.16028 -3.47865,3.47863 v 95.22881 c 0,2.31837 1.16029,3.47866 3.47865,3.47866 h 23.53982 c 2.31837,0 3.47865,-1.16029 3.47865,-3.47866 V 252.7967 c 0,-9.63008 -2.23248,-16.40804 -6.69086,-20.33141 -4.28004,-3.92339 -10.60999,-5.884 -18.99173,-5.884 z m 120.10835,0 c -2.31837,0 -3.47865,1.16028 -3.47865,3.47863 v 95.22881 c 0,2.31837 1.16028,3.47866 3.47865,3.47866 h 23.53982 c 2.31834,0 3.47865,-1.16029 3.47865,-3.47866 V 252.7967 c 0,-9.63008 -2.22869,-16.40804 -6.68706,-20.33141 -4.28003,-3.92339 -10.61379,-5.884 -18.99553,-5.884 z m -197.68515,26.48183 c 2.49671,0 5.43765,0.53611 8.82602,1.60612 3.38835,0.89168 6.3331,3.03227 8.82982,6.42063 2.67502,3.38838 4.01146,8.73799 4.01146,16.04972 0,7.31173 -1.33644,12.83751 -4.01146,16.58256 -2.67503,3.56669 -5.70787,5.97536 -9.09624,7.22371 -3.38837,1.07 -6.24124,1.60609 -8.5596,1.60609 -2.31836,0 -5.3512,-0.53609 -9.09624,-1.60609 -3.56669,-1.24835 -6.77571,-3.65702 -9.62907,-7.22371 -2.675,-3.74505 -4.01147,-9.27083 -4.01147,-16.58256 0,-7.31173 1.42454,-12.66134 4.27789,-16.04972 2.85337,-3.38836 6.06618,-5.52895 9.63287,-6.42063 3.56671,-1.07001 6.50766,-1.60612 8.82602,-1.60612 z m -232.281274,3.17797 a 21.530006,21.530006 0 0 1 21.530295,21.5303 21.530006,21.530006 0 0 1 -21.530295,21.53029 21.530006,21.530006 0 0 1 -21.530295,-21.53029 21.530006,21.530006 0 0 1 21.530295,-21.5303 z m -2.690812,8.07243 v 16.14868 l 14.127708,8.47586 2.020963,-3.30738 -12.110563,-7.18565 v -14.13151 z" /></g></g></svg>
